<svg width="35" height="31" viewBox="0 0 35 31" fill="none" xmlns="http://www.w3.org/2000/svg">
<path d="M17.226 0.200195C21.8274 0.200195 22.4015 0.215495 24.2068 0.291995C26.0104 0.368495 27.2383 0.624005 28.3188 1.00345C29.4365 1.39207 30.3781 1.91839 31.3197 2.76754C32.1809 3.53238 32.8472 4.45756 33.2724 5.47869C33.6907 6.4533 33.9752 7.56408 34.0599 9.19353C34.1395 10.8245 34.1615 11.3432 34.1615 15.5002C34.1615 19.6572 34.1446 20.1759 34.0599 21.8069C33.9752 23.4363 33.6907 24.5456 33.2724 25.5217C32.8484 26.5434 32.1819 27.4688 31.3197 28.2329C30.4729 29.0106 29.4489 29.6125 28.3188 29.9969C27.24 30.3749 26.0104 30.6319 24.2068 30.7084C22.4015 30.7803 21.8274 30.8002 17.226 30.8002C12.6246 30.8002 12.0505 30.7849 10.2452 30.7084C8.44158 30.6319 7.21375 30.3749 6.13327 29.9969C5.00253 29.6136 3.97828 29.0115 3.1323 28.2329C2.27097 27.4681 1.6046 26.5429 1.17964 25.5217C0.75964 24.5471 0.476818 23.4363 0.39214 21.8069C0.312543 20.1759 0.290527 19.6572 0.290527 15.5002C0.290527 11.3432 0.307463 10.8245 0.39214 9.19353C0.476818 7.56255 0.75964 6.45483 1.17964 5.47869C1.60343 4.45693 2.26995 3.5315 3.1323 2.76754C3.97852 1.98912 5.0027 1.38706 6.13327 1.00345C7.21375 0.624005 8.43988 0.368495 10.2452 0.291995C12.0505 0.220085 12.6246 0.200195 17.226 0.200195ZM17.226 7.85019C14.9802 7.8502 12.8264 8.65617 11.2384 10.0908C9.6504 11.5255 8.75827 13.4713 8.75827 15.5002C8.75827 17.5291 9.6504 19.4749 11.2384 20.9096C12.8264 22.3442 14.9802 23.1502 17.226 23.1502C19.4718 23.1502 21.6256 22.3442 23.2136 20.9096C24.8016 19.4749 25.6938 17.5291 25.6938 15.5002C25.6938 13.4713 24.8016 11.5255 23.2136 10.0908C21.6256 8.65617 19.4718 7.85019 17.226 7.85019ZM28.2341 7.4677C28.2341 6.96047 28.011 6.47402 27.614 6.11535C27.217 5.75669 26.6786 5.5552 26.1171 5.5552C25.5557 5.5552 25.0172 5.75669 24.6202 6.11535C24.2232 6.47402 24.0002 6.96047 24.0002 7.4677C24.0002 7.97492 24.2232 8.46137 24.6202 8.82004C25.0172 9.1787 25.5557 9.3802 26.1171 9.3802C26.6786 9.3802 27.217 9.1787 27.614 8.82004C28.011 8.46137 28.2341 7.97492 28.2341 7.4677ZM17.226 10.9102C18.5735 10.9102 19.8658 11.3938 20.8186 12.2546C21.7714 13.1154 22.3067 14.2829 22.3067 15.5002C22.3067 16.7175 21.7714 17.885 20.8186 18.7458C19.8658 19.6066 18.5735 20.0902 17.226 20.0902C15.8785 20.0902 14.5863 19.6066 13.6335 18.7458C12.6806 17.885 12.1454 16.7175 12.1454 15.5002C12.1454 14.2829 12.6806 13.1154 13.6335 12.2546C14.5863 11.3938 15.8785 10.9102 17.226 10.9102Z" fill="#3A271D"/>
</svg>
