<svg width="35" height="31" viewBox="0 0 35 31" fill="none" xmlns="http://www.w3.org/2000/svg">
<path d="M7.94715 3.60171C7.94668 4.50339 7.57177 5.36797 6.90491 6.00524C6.23805 6.64251 5.33385 7.00027 4.39123 6.99982C3.44862 6.99937 2.54479 6.64074 1.87859 6.00283C1.2124 5.36493 0.838396 4.49999 0.838868 3.59831C0.839339 2.69662 1.21424 1.83204 1.88111 1.19478C2.54797 0.557506 3.45217 0.199745 4.39479 0.200196C5.3374 0.200647 6.24123 0.559272 6.90742 1.19718C7.57362 1.83509 7.94762 2.70002 7.94715 3.60171ZM8.05378 9.51738H0.945492V30.8002H8.05378V9.51738ZM19.2849 9.51738H12.2121V30.8002H19.2138V19.6318C19.2138 13.4102 27.6904 12.8322 27.6904 19.6318V30.8002H34.7098V17.3199C34.7098 6.83153 22.1637 7.22251 19.2138 12.3732L19.2849 9.51738Z" fill="#3A271D"/>
</svg>
