<svg width="34" height="31" viewBox="0 0 34 31" fill="none" xmlns="http://www.w3.org/2000/svg">
<path d="M1.75825 0.200195H32.2421C32.6913 0.200195 33.122 0.379302 33.4396 0.698114C33.7572 1.01693 33.9357 1.44933 33.9357 1.9002V29.1002C33.9357 29.5511 33.7572 29.9835 33.4396 30.3023C33.122 30.6211 32.6913 30.8002 32.2421 30.8002H1.75825C1.30909 30.8002 0.878328 30.6211 0.560726 30.3023C0.243124 29.9835 0.0646973 29.5511 0.0646973 29.1002V1.9002C0.0646973 1.44933 0.243124 1.01693 0.560726 0.698114C0.878328 0.379302 1.30909 0.200195 1.75825 0.200195ZM17.1018 14.9613L6.24276 5.70479L4.04962 8.2956L17.1238 19.4391L29.9626 8.2871L27.7474 5.715L17.1035 14.9613H17.1018Z" fill="#3A271D"/>
</svg>
