<svg width="35" height="31" viewBox="0 0 35 31" fill="none" xmlns="http://www.w3.org/2000/svg">
<path d="M34.3212 3.83275C33.0526 4.45624 31.7074 4.86572 30.3299 5.04763C31.7818 4.0828 32.8684 2.56435 33.3874 0.775234C32.0248 1.67624 30.531 2.30768 28.974 2.64925C27.9282 1.4059 26.542 0.581301 25.0309 0.303654C23.5198 0.0260062 21.9684 0.310866 20.6181 1.11395C19.2677 1.91703 18.1939 3.19334 17.5637 4.74445C16.9335 6.29557 16.7821 8.03458 17.1332 9.69114C14.37 9.53726 11.6669 8.7394 9.19928 7.34938C6.73166 5.95936 4.55472 4.00824 2.80978 1.6227C2.19213 2.80149 1.86755 4.1415 1.86929 5.50552C1.86929 8.18269 3.09558 10.5478 4.95995 11.9326C3.85663 11.894 2.7776 11.5629 1.81279 10.967V11.063C1.81312 12.846 2.36839 14.574 3.38445 15.954C4.40051 17.334 5.81483 18.2811 7.38761 18.6347C6.3634 18.9432 5.28946 18.9886 4.2471 18.7677C4.69054 20.3024 5.55483 21.6446 6.71895 22.6064C7.88307 23.5682 9.28874 24.1013 10.7391 24.1313C9.29764 25.3892 7.64712 26.3191 5.88196 26.8678C4.1168 27.4165 2.27162 27.5733 0.451904 27.3291C3.62847 29.599 7.32629 30.8041 11.103 30.8002C23.8861 30.8002 30.8766 19.0336 30.8766 8.82891C30.8766 8.49657 30.8683 8.16054 30.855 7.83189C32.2157 6.73918 33.39 5.38555 34.3229 3.8346L34.3212 3.83275Z" fill="#3A271D"/>
</svg>
